<?xml version="1.0" encoding="UTF-8" standalone="no"?>
<!-- Created with Inkscape (http://www.inkscape.org/) -->

<svg
   width="210mm"
   height="297mm"
   viewBox="0 0 210 297"
   version="1.1"
   id="svg5"
   xml:space="preserve"
   inkscape:version="1.2.2 (732a01da63, 2022-12-09)"
   sodipodi:docname="bgfundo.svg"
   xmlns:inkscape="http://www.inkscape.org/namespaces/inkscape"
   xmlns:sodipodi="http://sodipodi.sourceforge.net/DTD/sodipodi-0.dtd"
   xmlns="http://www.w3.org/2000/svg"
   xmlns:svg="http://www.w3.org/2000/svg"><sodipodi:namedview
     id="namedview7"
     pagecolor="#505050"
     bordercolor="#eeeeee"
     borderopacity="1"
     inkscape:showpageshadow="0"
     inkscape:pageopacity="0"
     inkscape:pagecheckerboard="0"
     inkscape:deskcolor="#505050"
     inkscape:document-units="mm"
     showgrid="false"
     inkscape:zoom="0.74564394"
     inkscape:cx="290.35306"
     inkscape:cy="347.35077"
     inkscape:window-width="1920"
     inkscape:window-height="1017"
     inkscape:window-x="-8"
     inkscape:window-y="-8"
     inkscape:window-maximized="1"
     inkscape:current-layer="layer1" /><defs
     id="defs2" /><g
     inkscape:label="Camada 1"
     inkscape:groupmode="layer"
     id="layer1"><path
       style="fill:#000000;stroke-width:0.10256"
       d="m -49.948286,167.27068 c 0.03438,-0.32435 0.0703,-3.68193 0.07982,-7.46129 0.01163,-4.62057 0.05329,-6.95556 0.127177,-7.12796 0.06043,-0.14103 0.218577,-0.36128 0.351442,-0.48947 0.266104,-0.25676 0.256406,-0.46573 -0.02415,-0.52012 -0.224139,-0.0435 -0.352302,0.0769 -0.427979,0.40175 -0.03186,0.13688 -0.0832,0.35728 -0.114052,0.48978 -0.07154,0.30728 -0.396934,0.88176 -0.826813,1.45976 -0.462269,0.62155 -2.168793,1.56401 -3.807525,2.1028 -0.41801,0.13743 -0.810307,0.28905 -0.871766,0.33693 -0.06146,0.0479 -0.342507,0.1709 -0.624551,0.27339 -0.28204,0.10249 -0.978221,0.43204 -1.547069,0.73234 -1.339539,0.70714 -1.620397,0.71547 -0.863106,0.0256 0.638021,-0.58122 1.089351,-0.91043 1.95805,-1.42825 0.331211,-0.19743 1.16259,-0.77433 1.84751,-1.28201 0.684924,-0.50767 1.41267,-1.03232 1.617215,-1.16589 0.204545,-0.13356 0.533434,-0.39204 0.730862,-0.57441 0.516084,-0.47669 0.83322,-0.66987 1.099708,-0.66987 0.204615,0 0.233583,-0.0515 0.233583,-0.41534 0,-0.22843 0.06851,-0.54782 0.152249,-0.70975 0.252441,-0.48817 1.000952,-1.02299 1.711495,-1.22288 l 0.64899,-0.18258 0.03113,-0.59308 c 0.01713,-0.3262 -0.04622,-0.8991 -0.14076,-1.27311 -0.34498,-1.3648 -0.193467,-5.55049 0.316039,-8.73102 0.07681,-0.47947 0.218674,-1.47175 0.315252,-2.20505 0.09658,-0.73331 0.22214,-1.39294 0.279021,-1.46584 0.302774,-0.38805 0.327493,0.14413 0.327493,7.05107 v 6.95886 l 0.278191,0.21933 c 0.171903,0.13553 0.346895,0.43728 0.458009,0.78976 0.177248,0.56231 0.190834,0.57579 0.952533,0.94549 0.424998,0.20627 0.8881,0.45685 1.02912,0.55684 0.141024,0.1 0.787154,0.54707 1.43585,0.99356 0.648696,0.44648 1.333179,0.91795 1.521075,1.04772 0.295936,0.20439 1.185956,0.95795 3.512569,2.97399 0.670291,0.58082 0.479317,0.64171 -0.373168,0.11899 -0.335134,-0.20549 -0.97855,-0.57959 -1.429814,-0.83134 -0.451268,-0.25174 -0.889717,-0.51509 -0.974329,-0.58522 -0.08461,-0.0701 -0.523058,-0.32646 -0.974326,-0.56962 -1.057173,-0.56965 -2.21446,-1.25803 -2.906652,-1.72893 -0.301267,-0.20496 -0.764423,-0.51111 -1.029237,-0.68033 -0.264818,-0.16922 -0.645739,-0.4346 -0.846493,-0.58972 -0.421087,-0.32538 -0.477592,-0.33353 -0.931891,-0.13447 -0.185241,0.0812 -0.452183,0.1738 -0.593203,0.20586 -0.141024,0.032 -0.342971,0.12497 -0.448775,0.20647 -0.184877,0.14243 -0.185877,0.18045 -0.02562,0.97568 0.143893,0.71411 0.166736,1.75452 0.166736,7.59439 v 6.76692 h -0.731172 -0.731173 z m -0.332169,-15.02898 c -0.08376,-0.0838 -0.114099,-0.0723 -0.114099,0.0431 0,0.20389 0.137911,0.3418 0.188881,0.18889 0.02163,-0.0649 -0.01202,-0.16929 -0.07478,-0.23204 z m 33.465623,12.46496 c 0.03248,-1.73456 0.08316,-7.81512 0.112645,-13.51236 0.05061,-9.78047 0.08639,-12.47456 0.204289,-15.38409 0.02744,-0.6769 0.01376,-1.39147 -0.03039,-1.58792 -0.08223,-0.36603 -0.102994,-0.38214 -1.085141,-0.84222 -0.274877,-0.12876 -0.520255,-0.2875 -0.545292,-0.35273 -0.102129,-0.26615 0.207669,-1.00246 0.601587,-1.42981 0.228454,-0.24785 0.391786,-0.5121 0.362958,-0.58723 -0.02884,-0.0751 -0.414803,-0.24029 -0.857714,-0.36703 -1.051642,-0.30092 -2.718973,-1.1102 -3.82219,-1.85521 -0.971751,-0.65622 -4.36343,-3.16987 -6.675081,-4.94705 -0.817924,-0.62881 -1.912706,-1.46979 -2.432856,-1.86885 -0.938671,-0.72015 -1.17059,-1.00916 -0.970422,-1.20933 0.07051,-0.0705 0.363741,0.0373 0.907595,0.33355 1.7311,0.94309 4.194986,2.3515 6.546826,3.7423 2.171383,1.28409 4.805764,2.83599 7.384365,4.3501 1.93423,1.13575 1.723929,1.05601 2.574806,0.97628 0.701809,-0.0658 0.787375,-0.0991 1.007188,-0.39274 0.13212,-0.17648 0.275276,-0.43625 0.318121,-0.57728 0.04284,-0.14102 0.315415,-0.78715 0.605704,-1.43584 0.932182,-2.08308 1.879164,-3.22388 5.9890409,-7.21481 2.212476,-2.14845 2.786739,-2.59974 2.786739,-2.19 0,0.0733 -0.283652,0.54639 -0.630341,1.05124 -1.331167,1.93848 -2.828038,4.04336 -3.716045,5.22547 -0.508494,0.6769 -1.180836,1.57625 -1.494096,1.99855 -0.313256,0.42231 -0.7644499,1.01101 -1.0026489,1.30822 -0.404454,0.50465 -0.779599,1.04203 -1.507368,2.15927 -0.2818,0.4326 -0.292405,0.48628 -0.179484,0.90847 0.06601,0.24679 0.120014,0.54265 0.120014,0.65746 0,0.29253 -0.2749,0.79743 -0.680621,1.2501 -0.457513,0.51044 -0.439585,0.78543 0.110889,1.70061 0.851365,1.41544 1.651442,4.68354 2.414555,9.8628 0.06233,0.42306 0.178911,0.99996 0.259066,1.282 0.08015,0.28205 0.1917759,0.95125 0.2480519,1.48713 0.05628,0.53588 0.195789,1.71277 0.310027,2.6153 0.246115,1.94443 0.251623,2.10249 0.07329,2.10249 -0.140074,0 -0.6153719,-1.44583 -0.9271779,-2.82042 -0.429064,-1.8915 -0.609487,-2.62779 -0.829343,-3.3845 -0.131113,-0.45126 -0.362431,-1.37431 -0.514041,-2.05121 -0.151611,-0.6769 -0.523701,-2.26915 -0.826867,-3.53834 -0.736801,-3.08457 -1.258559,-5.3644 -1.384024,-6.04748 -0.05662,-0.30825 -0.141528,-0.59906 -0.188687,-0.64622 -0.136647,-0.13664 -0.461098,-0.12731 -0.825843,0.0238 l -0.337603,0.13984 0.07184,3.70094 c 0.03951,2.0355 0.11427,4.53165 0.166123,5.54701 0.05186,1.01534 0.137249,5.76903 0.189757,10.56374 0.05251,4.79471 0.143687,9.733 0.202615,10.97399 0.05893,1.24098 0.107587,2.5217 0.108125,2.84605 l 0.0012,0.58973 h -1.136482 -1.136487 l 0.05904,-3.15374 z M 125.1678,163.21955 c 0.0164,-2.55249 0.0821,-6.67159 0.14591,-9.15356 0.10529,-4.09386 0.11822,-8.86457 0.0243,-8.96101 -0.0205,-0.0211 -0.32772,0.21459 -0.68275,0.52361 -0.35501,0.30903 -1.47622,1.12886 -2.49157,1.82184 -1.01535,0.69299 -1.95616,1.34578 -2.09069,1.45067 -0.25839,0.20146 -0.62717,0.25689 -0.62717,0.0942 0,-0.053 1.1968,-1.1863 2.65956,-2.51833 2.36023,-2.1493 2.65859,-2.45587 2.65097,-2.72396 -0.005,-0.16615 -0.0477,-0.30209 -0.0955,-0.30209 -0.0478,0 -0.087,-0.0606 -0.087,-0.13465 0,-0.18206 0.48328,-0.62227 0.92304,-0.84078 0.64725,-0.32162 0.64602,-0.2882 0.052,-1.4161 -0.83343,-1.58241 -0.9488,-1.98376 -1.80009,-6.26232 -0.2231,-1.12127 -0.40564,-2.12893 -0.40564,-2.23924 0,-0.43439 0.24768,-0.0798 0.51995,0.74432 0.93005,2.81523 2.18259,6.69046 2.31891,7.17451 0.0874,0.31025 0.21625,0.77126 0.28639,1.02447 0.10397,0.3753 0.20131,0.49851 0.52671,0.66665 0.23515,0.1215 0.45644,0.33618 0.53852,0.52242 0.12306,0.27921 0.22495,0.3367 0.87177,0.49185 0.84729,0.20323 1.7774,0.68642 3.97736,2.0662 2.55353,1.60154 2.46739,1.68667 -0.41261,0.40773 -1.07971,-0.47948 -1.98154,-0.87177 -2.00409,-0.87177 -0.0226,0 -0.63348,-0.28126 -1.35766,-0.62504 -1.19538,-0.56744 -1.34568,-0.61468 -1.63163,-0.5128 -0.17322,0.0617 -0.40987,0.11223 -0.52589,0.11223 -0.44032,0 -0.45078,0.10668 -0.3431,3.50002 0.0562,1.76973 0.0985,4.5792 0.094,6.24324 -0.004,1.66405 0.0496,3.75892 0.12008,4.65528 0.0845,1.07472 0.10499,2.40198 0.0601,3.8973 -0.0528,1.75905 -0.22933,5.62456 -0.26399,5.78027 -0.003,0.0141 -0.22494,0.0257 -0.49288,0.0257 l -0.48716,1e-5 z m 32.19612,1.74357 c 0.0121,-1.59356 0.0691,-4.72041 0.1268,-6.94854 0.15246,-5.89039 0.31746,-17.93313 0.31495,-22.98667 -0.002,-4.71908 0.0221,-4.51804 -0.56683,-4.65931 -0.40093,-0.0962 -0.56351,-0.23125 -0.56351,-0.46818 0,-0.10592 -0.0462,-0.19257 -0.10256,-0.19257 -0.23429,0 -0.0753,-0.44445 0.30768,-0.85989 0.22564,-0.24478 0.41025,-0.46957 0.41025,-0.49953 0,-0.03 -0.38076,-0.18039 -0.84613,-0.33428 -1.4827,-0.49031 -2.51903,-1.11684 -5.41007,-3.2707 -3.34254,-2.49022 -4.92291,-3.76715 -4.92291,-3.97766 0,-0.15619 0.0502,-0.19664 0.19648,-0.15838 0.39944,0.10446 10.37225,5.85669 11.72056,6.76032 0.61931,0.41507 0.88599,0.45886 1.55507,0.25538 0.38179,-0.1161 0.41431,-0.16348 0.92884,-1.35309 0.29328,-0.67803 0.73384,-1.53185 0.97903,-1.89738 0.51546,-0.76844 5.33961,-5.63878 5.58531,-5.63878 0.32231,0 0.13877,0.38331 -0.84079,1.75592 -0.54832,0.76834 -1.34309,1.89059 -1.76615,2.49393 -1.08664,1.54964 -2.50015,3.47411 -3.15683,4.29797 -0.50416,0.63253 -0.54815,0.72681 -0.44486,0.95351 0.21122,0.46359 0.13956,0.92433 -0.20478,1.31649 -0.37189,0.42358 -0.37726,0.37298 0.21235,2.00226 0.72316,1.99834 0.97428,3.19398 1.59395,7.58949 0.6756,4.79211 0.70695,5.11595 0.47097,4.86478 -0.0907,-0.0966 -2.67547,-10.39779 -3.08636,-12.30043 -0.3399,-1.57391 -0.32578,-1.54161 -0.66307,-1.51676 -0.16164,0.0119 -0.32767,0.0763 -0.36896,0.14313 -0.0811,0.13121 -0.0494,3.58012 0.11446,12.45018 0.25239,13.66359 0.29995,16.96356 0.3012,20.89672 l 0.001,4.17935 -0.94869,6e-5 -0.94868,7e-5 z m 36.4718,-2.61535 c 0.28887,-24.59448 0.3754,-29.62453 0.59324,-34.48601 0.12325,-2.75064 0.0284,-14.14823 -0.11898,-14.29957 -0.056,-0.0575 -0.32984,0.13151 -0.69388,0.47875 -0.87836,0.8378 -2.05495,1.5631 -4.48033,2.76185 -3.89962,1.92739 -7.49766,3.57059 -7.82025,3.57144 -0.30943,0.001 -0.30734,-0.40202 0.003,-0.62234 0.19275,-0.13674 3.44959,-2.32753 8.99857,-6.05312 0.70625,-0.47418 1.73314,-1.15472 2.28197,-1.51231 0.54884,-0.35758 0.99788,-0.69616 0.99788,-0.75238 0,-0.0562 -0.17307,-0.0867 -0.38461,-0.0678 -0.21153,0.019 -0.39614,0 -0.41024,-0.0425 -0.22399,-0.67199 1.07621,-1.73248 2.8717,-2.34224 0.76622,-0.26022 0.79487,-0.31726 0.58785,-1.17046 -0.2338,-0.96362 -0.60677,-3.35997 -0.67041,-4.30755 -0.0992,-1.47658 0.14987,-4.042482 0.97555,-10.050936 0.43305,-3.151247 0.51551,-3.614369 0.66577,-3.739062 0.38535,-0.319826 0.39274,-0.112921 0.3249,9.098491 -0.036,4.893067 -0.0915,9.104177 -0.1232,9.358017 -0.056,0.44781 -0.0466,0.46745 0.31616,0.6611 0.52945,0.28265 0.81133,0.7261 0.87199,1.37185 l 0.0513,0.54583 1.04032,0.39199 c 2.14803,0.80936 3.10051,1.42187 6.71706,4.3196 3.20233,2.56582 4.89943,3.98717 5.01212,4.19774 0.0672,0.12554 0.0676,0.21285 0.001,0.25386 -0.0556,0.0344 -1.54417,-0.8115 -3.30786,-1.87973 -1.76369,-1.06823 -3.92207,-2.37315 -4.7964,-2.89982 -0.87433,-0.52667 -2.44351,-1.52672 -3.48706,-2.22234 l -1.89738,-1.26476 -0.64315,0.211 c -0.35373,0.11603 -0.73233,0.21098 -0.8413,0.21098 -0.10898,0 -0.3157,0.0536 -0.45937,0.11903 l -0.26123,0.11901 0.001,2.67576 c 0.001,1.47166 0.046,5.1449 0.10086,8.16275 0.0548,3.01784 0.16812,10.19452 0.25177,15.94817 0.0836,5.75366 0.17747,11.10732 0.20849,11.89704 0.031,0.78971 0.10087,4.36652 0.15521,7.94844 0.0543,3.58193 0.1279,7.05489 0.1635,7.71769 l 0.0647,1.20509 h -1.46284 -1.46284 l 0.0648,-5.51263 z"
       id="path200" /></g></svg>
