<?xml version="1.0" standalone="no"?>
<!DOCTYPE svg PUBLIC "-//W3C//DTD SVG 20010904//EN"
 "http://www.w3.org/TR/2001/REC-SVG-20010904/DTD/svg10.dtd">
<svg version="1.0" xmlns="http://www.w3.org/2000/svg"
 width="300.000000pt" height="188.000000pt" viewBox="0 0 300.000000 188.000000"
 preserveAspectRatio="xMidYMid meet">
<metadata>
Created by potrace 1.10, written by Peter Selinger 2001-2011
</metadata>
<g transform="translate(0.000000,188.000000) scale(0.100000,-0.100000)"
fill="#000000" stroke="none">
<path d="M2764 776 c-3 -13 -6 -58 -8 -99 -1 -70 -4 -78 -32 -105 -17 -16 -52
-42 -78 -57 -70 -41 -48 -42 28 -2 l66 35 0 -274 c0 -183 3 -274 10 -274 7 0
10 92 10 282 -1 179 2 284 8 286 6 2 35 -13 66 -33 80 -51 100 -55 37 -7 -30
23 -62 44 -72 47 -27 9 -32 37 -24 136 7 86 2 115 -11 65z"/>
<path d="M687 471 c-19 -22 -41 -50 -48 -63 -6 -12 -13 -25 -15 -27 -1 -1 -42
20 -89 49 -47 29 -88 50 -91 47 -6 -5 87 -73 122 -89 14 -7 23 -17 20 -25 -3
-7 -1 -13 4 -13 6 0 10 -69 10 -175 0 -125 3 -175 12 -175 8 0 10 46 5 175 -4
147 -3 175 9 175 8 0 14 6 14 13 0 7 21 41 46 76 53 71 54 90 1 32z"/>
<path d="M2420 455 c-19 -25 -36 -45 -38 -45 -2 0 -31 16 -64 36 -32 20 -61
34 -64 32 -5 -6 81 -68 95 -68 17 0 22 -59 19 -238 -2 -136 0 -172 10 -172 10
0 12 39 8 192 -6 192 -3 201 24 89 18 -70 20 -42 3 41 l-15 77 37 51 c20 27
33 50 28 50 -5 0 -24 -20 -43 -45z"/>
<path d="M2026 325 c3 -22 10 -45 15 -51 5 -6 5 -15 1 -20 -4 -5 -5 -65 -1
-134 l5 -125 2 128 2 127 40 -20 c50 -26 53 -12 3 15 -28 15 -41 32 -55 70
-18 49 -18 50 -12 10z"/>
<path d="M630 330 c0 -27 33 -156 42 -165 7 -7 8 -3 5 10 -4 11 -11 50 -18 88
-6 37 -15 70 -20 73 -5 3 -9 0 -9 -6z"/>
<path d="M278 290 c-5 -25 -9 -61 -10 -80 -3 -29 -11 -41 -50 -70 -26 -19 -45
-36 -44 -38 2 -2 22 6 45 18 l41 20 0 -70 c0 -44 4 -70 11 -70 8 0 10 26 7 80
-2 44 1 80 5 80 5 0 29 -14 53 -31 63 -43 67 -30 5 14 l-50 36 -3 78 c-3 72
-4 75 -10 33z"/>
</g>
</svg>
