<?xml version="1.0" standalone="no"?>
<!DOCTYPE svg PUBLIC "-//W3C//DTD SVG 20010904//EN"
 "http://www.w3.org/TR/2001/REC-SVG-20010904/DTD/svg10.dtd">
<svg version="1.0" xmlns="http://www.w3.org/2000/svg"
 width="300.000000pt" height="188.000000pt" viewBox="0 0 300.000000 188.000000"
 preserveAspectRatio="xMidYMid meet">
<metadata>
Created by potrace 1.10, written by Peter Selinger 2001-2011
</metadata>
<g transform="translate(0.000000,188.000000) scale(0.100000,-0.100000)"
fill="#000000" stroke="none">
<path d="M2020 1836 c0 -10 16 -93 35 -184 25 -117 46 -188 70 -238 19 -40 35
-74 35 -77 0 -2 -13 -10 -30 -17 -41 -17 -54 -34 -41 -57 8 -16 -6 -33 -100
-119 -61 -54 -125 -111 -142 -126 -18 -14 -29 -29 -25 -33 7 -8 214 132 271
184 l37 34 -5 -439 c-3 -242 -7 -512 -10 -601 l-5 -163 36 0 37 0 -7 198 c-3
108 -9 391 -12 628 l-7 431 33 5 c25 4 71 -13 208 -74 97 -43 177 -78 179 -78
37 0 -250 169 -300 177 -28 4 -41 12 -45 25 -2 11 -15 23 -27 28 -14 5 -24 20
-29 42 -9 49 -138 452 -148 463 -5 5 -8 2 -8 -9z"/>
<path d="M1614 1183 c-28 -61 -48 -118 -51 -151 -4 -34 -11 -56 -21 -59 -8 -4
-88 9 -177 27 -89 18 -169 30 -176 28 -18 -6 228 -88 264 -88 17 0 27 -5 27
-15 0 -8 7 -15 15 -15 13 0 14 -58 8 -455 l-6 -455 27 0 c21 0 26 4 23 18 -11
37 -12 895 -2 899 6 2 46 -69 90 -157 44 -88 83 -160 87 -160 13 0 -89 243
-121 289 -14 19 -20 38 -16 50 3 11 2 22 -3 25 -5 3 14 76 42 161 29 85 48
155 44 155 -4 0 -28 -44 -54 -97z"/>
<path d="M830 836 c0 -9 121 -156 130 -156 3 0 14 -7 24 -15 17 -13 17 -17 5
-31 -11 -13 -11 -18 -1 -21 20 -7 14 -103 -13 -218 -3 -11 2 -6 10 10 14 27
15 12 13 -187 -3 -193 -1 -218 12 -218 14 0 16 34 16 300 -1 348 -10 320 117
362 l82 28 -57 -5 c-31 -3 -69 -10 -85 -17 -15 -7 -35 -13 -43 -13 -8 -1 -59
41 -112 94 -54 53 -98 92 -98 87z"/>
</g>
</svg>
