<?xml version="1.0" encoding="UTF-8" standalone="no"?>
<!-- Created with Inkscape (http://www.inkscape.org/) -->

<svg
   width="210mm"
   height="297mm"
   viewBox="0 0 210 297"
   version="1.1"
   id="svg5"
   xml:space="preserve"
   inkscape:version="1.2.2 (732a01da63, 2022-12-09)"
   sodipodi:docname="bgwind.svg"
   xmlns:inkscape="http://www.inkscape.org/namespaces/inkscape"
   xmlns:sodipodi="http://sodipodi.sourceforge.net/DTD/sodipodi-0.dtd"
   xmlns="http://www.w3.org/2000/svg"
   xmlns:svg="http://www.w3.org/2000/svg"><sodipodi:namedview
     id="namedview7"
     pagecolor="#505050"
     bordercolor="#eeeeee"
     borderopacity="1"
     inkscape:showpageshadow="0"
     inkscape:pageopacity="0"
     inkscape:pagecheckerboard="0"
     inkscape:deskcolor="#505050"
     inkscape:document-units="mm"
     showgrid="false"
     inkscape:zoom="0.74564394"
     inkscape:cx="362.10312"
     inkscape:cy="454.64059"
     inkscape:window-width="1920"
     inkscape:window-height="1017"
     inkscape:window-x="-8"
     inkscape:window-y="-8"
     inkscape:window-maximized="1"
     inkscape:current-layer="layer1" /><defs
     id="defs2" /><g
     inkscape:label="Camada 1"
     inkscape:groupmode="layer"
     id="layer1"><path
       style="fill:#000000;stroke-width:0.264583"
       d="m 52.513321,177.0181 0.162957,-19.64531 -0.858986,2.46718 c -0.472442,1.35695 -0.974981,2.44003 -1.116753,2.40684 -0.308774,-0.0723 -0.358555,0.24603 1.090713,-6.97406 1.041427,-5.18825 1.165064,-6.19292 1.165064,-9.46716 0,-3.25763 -0.05123,-3.67879 -0.463021,-3.80603 -0.95816,-0.29608 -1.259131,-0.57482 -1.338945,-1.24004 -0.08379,-0.6984 0.353004,-1.29359 1.499372,-2.04308 0.606238,-0.39635 0.590958,-0.41436 -1.633135,-1.92513 -1.271929,-0.86399 -2.982127,-2.35352 -3.945424,-3.43636 -2.091614,-2.35117 -8.327742,-9.87977 -8.873125,-10.71214 -0.445384,-0.67974 -0.303716,-1.0217 0.282667,-0.6823 0.516213,0.29879 14.084695,13.22404 15.33533,14.60834 0.820393,0.90808 1.154573,1.09316 1.979864,1.09653 0.546081,0.002 1.163494,0.11202 1.372026,0.24398 0.263789,0.16692 0.725799,0.001 1.518449,-0.54393 1.603843,-1.10348 2.915737,-1.51162 6.701359,-2.08486 5.207256,-0.7885 7.235343,-0.93673 7.095974,-0.51863 -0.122254,0.36677 -8.216707,3.17061 -12.162526,4.21299 -1.840669,0.48625 -2.342957,0.72748 -2.574946,1.23664 -0.158514,0.3479 -0.587618,0.76897 -0.953564,0.93571 -0.365945,0.16673 -0.665456,0.37334 -0.665577,0.45912 -0.0019,1.2695 -0.647274,6.15319 -0.999768,7.5643 -0.49488,1.98111 -0.488876,4.97693 0.07275,36.31407 l 0.200342,11.17864 h -1.527027 -1.527027 z m 45.156793,14.15521 c -5.3e-4,-3.01956 0.18407,-19.89667 0.41001,-37.50469 0.22595,-17.60802 0.37513,-33.43596 0.33152,-35.17321 l -0.0793,-3.15862 -0.92604,-0.22822 c -1.14527,-0.28225 -1.85209,-1.07712 -1.85209,-2.0828 0,-0.76113 -0.007,-0.76445 -1.65364,-0.7663 -0.90951,-10e-4 -2.60615,-0.23286 -3.77031,-0.5152 -3.32506,-0.80642 -19.460278,-6.35344 -20.152836,-6.92821 -0.541493,-0.4494 -0.418322,-1.0214 0.219943,-1.0214 0.96334,0 22.622303,4.22706 25.949313,5.06438 2.53692,0.63848 3.28449,0.73517 3.977766,0.51452 0.46955,-0.14945 1.21091,-0.3741 1.64747,-0.49922 0.89917,-0.25771 0.89671,-0.24936 1.5777,-5.37109 0.50379,-3.789075 0.8747,-4.878272 3.7155,-10.910823 3.3121,-7.033366 5.51687,-11.140525 6.03382,-11.240083 0.27903,-0.05373 0.44694,0.08413 0.44694,0.36698 0,0.677151 -6.42477,20.682536 -7.76931,24.192006 -1.11735,2.91646 -1.14558,3.05917 -0.68054,3.43958 1.11297,0.91041 1.18109,3.08437 0.12414,3.96156 -0.29476,0.24463 -0.075,0.69832 1.19555,2.46856 2.75178,3.83389 4.25687,7.09377 10.02624,21.71587 1.02653,2.6017 1.86643,4.83412 1.86643,4.96094 0,1.457 -3.77086,-5.3779 -12.13643,-21.99802 l -3.0083,-5.97668 -1.09274,0.147 -1.09275,0.14699 0.0683,9.52387 c 0.0376,5.23813 0.18435,17.32246 0.32616,26.85408 0.14181,9.53161 0.32135,21.61646 0.39899,26.85521 0.0776,5.23875 0.20654,11.57883 0.28646,14.08906 l 0.1453,4.56406 h -2.266256 -2.26626 z m 55.655576,-12.03854 c 0.2406,-23.56962 0.64075,-59.96793 0.8428,-76.66303 l 0.1649,-13.626041 -2.04553,2.080972 c -2.50187,2.545207 -4.75617,4.228759 -14.268,10.655589 -10.59178,7.15651 -10.12905,6.88143 -10.66722,6.34145 -0.41756,-0.41898 -0.32173,-0.56585 1.53909,-2.35891 2.70742,-2.60883 19.28016,-17.737892 21.51756,-19.643136 l 1.80609,-1.53797 -0.66018,-0.345903 c -0.95475,-0.500242 -1.36175,-1.910535 -0.88244,-3.057692 0.55488,-1.328004 2.96001,-3.083719 5.5372,-4.042074 0.69122,-0.257037 1.25677,-0.572979 1.25677,-0.702093 0,-0.129111 -1.0052,-2.166763 -2.23378,-4.528116 -2.80729,-5.395667 -3.64843,-7.50713 -4.79871,-12.045978 -1.04925,-4.14015 -5.66751,-26.88868 -5.66751,-27.91687 0,-0.819861 0.41466,-1.135136 0.93022,-0.707262 0.20783,0.172484 1.08539,2.474687 1.95013,5.116007 9.77307,29.851509 11.69938,35.980312 12.09148,38.470631 0.15147,0.962028 0.26895,1.12448 0.81319,1.12448 1.7685,0 3.492,1.461156 3.71889,3.152825 0.11124,0.829334 0.27916,1.117103 0.70592,1.209799 7.59099,1.648802 8.15346,1.91828 21.92331,10.503298 7.12534,4.442405 8.53245,5.496378 7.87795,5.900883 -0.14366,0.08878 -3.92421,-1.436558 -8.40124,-3.389641 -4.47703,-1.953082 -9.62834,-4.18678 -11.44735,-4.963774 -1.81901,-0.776991 -5.25534,-2.378075 -7.63628,-3.55796 l -4.329,-2.14525 -0.98732,0.488484 c -0.54302,0.268666 -1.66256,0.598385 -2.48785,0.732706 -0.8253,0.134321 -1.63207,0.325509 -1.79284,0.424865 -0.21006,0.129828 -0.24455,3.166502 -0.12259,10.795019 0.0933,5.837902 0.28371,18.710622 0.42305,28.606042 0.13934,9.89542 0.31793,21.20635 0.39688,25.13542 0.0789,3.92906 0.25779,13.57312 0.39742,21.43125 0.13963,7.85812 0.3322,17.0557 0.42792,20.43906 l 0.17404,6.15156 h -3.12295 -3.12296 z"
       id="path191" /></g></svg>
